<?xml version="1.0" encoding="UTF-8"?>
<!-- Generated by Pixelmator Pro 3.6.12 -->
<svg width="3569" height="2681" viewBox="0 0 3569 2681" xmlns="http://www.w3.org/2000/svg">
    <path id="Path" fill="#ffffff" stroke="none" d="M 124.953613 1908.179932 C 130.945557 1908.179932 136.9375 1907.354736 142.929565 1905.696289 C 148.913208 1904.038086 154.413452 1901.229492 159.413818 1897.24585 C 164.397339 1893.279053 168.464233 1887.987061 171.631104 1881.344971 C 174.797974 1874.728027 176.373047 1866.444336 176.373047 1856.518799 C 176.373047 1839.301025 171.539429 1826.625488 161.905518 1818.516602 C 152.246704 1810.41626 139.762695 1806.341064 124.461914 1806.341064 L 72.542358 1806.341064 L 72.542358 1908.179932 Z M 251.260376 1852.268555 C 251.260376 1861.593994 250.085327 1870.81958 247.760254 1879.969971 C 245.435059 1889.120605 241.851563 1897.62085 237.034668 1905.429688 C 232.20105 1913.255127 226.125732 1920.23877 218.808594 1926.38916 C 211.483276 1932.564453 202.841064 1937.298096 192.848877 1940.623291 L 192.848877 1941.123291 C 207.149658 1945.781982 217.466919 1953.607422 223.800537 1964.574707 C 230.117554 1975.566895 235.109497 1987.709229 238.776367 2001.026611 L 266.236206 2096.856689 L 192.848877 2096.856689 L 166.88916 2007.010254 C 161.563843 1988.050781 154.155151 1975.233398 144.679688 1968.583252 C 135.195801 1961.924561 123.461792 1958.59082 109.477783 1958.59082 L 72.542358 1958.59082 L 72.542358 2096.856689 L -0.328247 2096.856689 L -0.328247 1753.921631 L 138.937622 1753.921631 C 158.580444 1753.921631 175.456299 1756.513428 189.607056 1761.655273 C 203.749512 1766.830566 215.391846 1773.897705 224.550659 1782.881348 C 233.692749 1791.865234 240.434814 1802.349121 244.768433 1814.324707 C 249.093628 1826.308838 251.260376 1838.959473 251.260376 1852.268555"/>
    <path id="path1" fill="#ffffff" stroke="none" d="M 379.485596 2102.354492 C 363.176514 2102.354492 350.109131 2100.187744 340.308594 2095.862549 C 330.474609 2091.545654 322.907715 2085.553711 317.590576 2077.894775 C 312.265381 2070.244385 308.765137 2061.418945 307.106689 2051.443359 C 305.439941 2041.459473 304.61499 2030.642334 304.61499 2019 L 304.61499 1851.774414 L 376.002197 1851.774414 L 376.002197 2003.52417 C 376.002197 2009.507813 376.310547 2015.166504 376.993896 2020.483398 C 377.652344 2025.808838 379.144043 2030.475586 381.48584 2034.467529 C 383.810791 2038.451172 387.135986 2041.634521 391.469727 2043.959717 C 395.794922 2046.284912 401.770264 2047.45166 409.437256 2047.45166 C 416.420898 2047.45166 424.654785 2045.618164 434.146973 2041.951172 C 443.630859 2038.292725 452.864746 2032.47583 461.848389 2024.483643 L 461.848389 1851.774414 L 533.235596 1851.274414 L 533.235596 2096.862549 L 466.848633 2096.862549 C 466.173584 2092.545654 465.848633 2088.212158 465.848633 2083.878662 C 465.848633 2079.570068 465.50708 2075.078125 464.840332 2070.402832 L 462.840088 2069.411133 C 455.189697 2076.069824 447.456055 2081.469971 439.630615 2085.636963 C 431.813477 2089.803955 424.246338 2093.120605 416.921143 2095.612549 C 409.595703 2098.121094 402.695313 2099.862793 396.203125 2100.854492 C 389.719482 2101.846191 384.144287 2102.354492 379.485596 2102.354492"/>
    <path id="path2" fill="#ffffff" stroke="none" d="M 682.639648 1845.766602 C 695.615234 1845.766602 709.999268 1847.19165 725.816895 1850.016846 C 741.617676 1852.850098 756.018555 1857.750488 768.98584 1864.750977 L 753.518311 1908.678223 C 740.209229 1903.677979 727.89209 1900.269531 716.574707 1898.436035 C 705.265869 1896.602539 694.781982 1895.694092 685.131348 1895.694092 C 676.147461 1895.694092 667.913818 1897.11084 660.421631 1899.944336 C 652.937988 1902.769531 649.196045 1908.844971 649.196045 1918.153809 C 649.196045 1921.487305 650.604492 1924.387451 653.437988 1926.887451 C 656.254883 1929.379395 659.754883 1931.629395 663.921875 1933.629639 C 668.072021 1935.629639 672.730713 1937.296387 677.889404 1938.629883 L 692.61499 1942.621826 C 702.932373 1945.613525 713.41626 1949.030518 724.066895 1952.855713 C 734.708984 1956.680908 744.442871 1961.756104 753.268311 1968.089844 C 762.085449 1974.406738 769.327637 1982.298828 774.977783 1991.791016 C 780.644775 2001.274902 783.469971 2013.175537 783.469971 2027.468018 C 783.469971 2051.102539 773.986084 2069.253662 755.018555 2081.895996 C 736.04248 2094.530029 707.424316 2100.855225 669.163818 2100.855225 C 662.163574 2100.855225 654.429688 2100.530273 645.945801 2099.863525 C 637.470459 2099.180176 628.719971 2098.021729 619.744385 2096.363281 C 610.760742 2094.705078 601.935303 2092.621582 593.284668 2090.129639 C 584.634277 2087.629639 576.64209 2084.554443 569.325195 2080.887451 L 584.801025 2036.468506 C 605.09375 2043.793945 622.561279 2048.36084 637.212158 2050.185791 C 651.854492 2052.027588 663.330078 2052.936035 671.655762 2052.936035 C 683.306152 2052.936035 693.123535 2051.019287 701.098877 2047.194092 C 709.091064 2043.368896 713.091309 2036.301758 713.091309 2025.984619 C 713.091309 2020.992676 711.757813 2016.90918 709.091064 2013.750488 C 706.432617 2010.58374 702.857422 2007.842041 698.365479 2005.508545 C 693.865234 2003.18335 688.873291 2001.199951 683.389648 1999.533203 L 667.163818 1994.524658 C 655.846436 1991.207764 644.862549 1987.624268 634.220215 1983.799072 C 623.569824 1979.973877 614.160889 1975.398438 606.010498 1970.073242 C 597.851563 1964.739502 591.292969 1958.097656 586.292725 1950.105469 C 581.300781 1942.113281 578.808838 1932.129395 578.808838 1920.153809 C 578.808838 1896.519287 587.617676 1878.226563 605.260498 1865.242432 C 622.903076 1852.266846 648.687744 1845.766602 682.639648 1845.766602"/>
    <path id="path3" fill="#ffffff" stroke="none" d="M 919.551514 1845.766602 C 932.535645 1845.766602 946.919678 1847.19165 962.729004 1850.016846 C 978.529785 1852.850098 992.93042 1857.750488 1005.90625 1864.750977 L 990.43042 1908.678223 C 977.121338 1903.677979 964.812256 1900.269531 953.486816 1898.436035 C 942.177734 1896.602539 931.693848 1895.694092 922.043457 1895.694092 C 913.05957 1895.694092 904.817383 1897.11084 897.33374 1899.944336 C 889.849854 1902.769531 886.116455 1908.844971 886.116455 1918.153809 C 886.116455 1921.487305 887.516602 1924.387451 890.349854 1926.887451 C 893.175049 1929.379395 896.666992 1931.629395 900.833984 1933.629639 C 904.984131 1935.629639 909.634277 1937.296387 914.80957 1938.629883 L 929.5271 1942.621826 C 939.844238 1945.613525 950.328125 1949.030518 960.97876 1952.855713 C 971.621094 1956.680908 981.363281 1961.756104 990.188721 1968.089844 C 998.997559 1974.406738 1006.231201 1982.298828 1011.898193 1991.791016 C 1017.548584 2001.274902 1020.38208 2013.175537 1020.38208 2027.468018 C 1020.38208 2051.102539 1010.898193 2069.253662 991.93042 2081.895996 C 972.954346 2094.530029 944.336182 2100.855225 906.067383 2100.855225 C 899.08374 2100.855225 891.341797 2100.530273 882.85791 2099.863525 C 874.365723 2099.180176 865.640381 2098.021729 856.656494 2096.363281 C 847.672607 2094.705078 838.847168 2092.621582 830.188477 2090.129639 C 821.546143 2087.629639 813.554199 2084.554443 806.237061 2080.887451 L 821.712891 2036.468506 C 842.005615 2043.793945 859.473389 2048.36084 874.124023 2050.185791 C 888.766602 2052.027588 900.242188 2052.936035 908.575928 2052.936035 C 920.218262 2052.936035 930.0271 2051.019287 938.019287 2047.194092 C 946.00293 2043.368896 950.003174 2036.301758 950.003174 2025.984619 C 950.003174 2020.992676 948.669678 2016.90918 946.00293 2013.750488 C 943.344482 2010.58374 939.769287 2007.842041 935.269043 2005.508545 C 930.7771 2003.18335 925.785156 2001.199951 920.301514 1999.533203 L 904.075684 1994.524658 C 892.758545 1991.207764 881.774414 1987.624268 871.132324 1983.799072 C 860.465088 1979.973877 851.072754 1975.398438 842.922363 1970.073242 C 834.763672 1964.739502 828.204834 1958.097656 823.20459 1950.105469 C 818.212646 1942.113281 815.720947 1932.129395 815.720947 1920.153809 C 815.720947 1896.519287 824.538086 1878.226563 842.172363 1865.242432 C 859.814941 1852.266846 885.608154 1845.766602 919.551514 1845.766602"/>
    <path id="path4" fill="#ffffff" stroke="none" d="M 1062.160889 1851.769287 L 1133.548096 1851.769287 L 1133.548096 2096.857666 L 1062.160889 2096.857666 Z M 1140.040039 1783.874023 C 1140.040039 1794.532959 1136.456543 1803.525146 1129.297852 1810.83374 C 1122.147461 1818.15918 1111.588623 1821.817871 1097.604492 1821.817871 C 1084.29541 1821.817871 1074.153076 1818.15918 1067.152832 1810.83374 C 1060.160889 1803.525146 1056.668945 1794.532959 1056.668945 1783.874023 C 1056.668945 1772.906738 1060.252441 1763.756348 1067.402832 1756.430908 C 1074.561523 1749.097168 1084.620605 1745.447021 1097.604492 1745.447021 C 1111.588623 1745.447021 1122.147461 1749.097168 1129.297852 1756.430908 C 1136.456543 1763.756348 1140.040039 1772.906738 1140.040039 1783.874023"/>
    <path id="path5" fill="#ffffff" stroke="none" d="M 1283.992188 1991.041748 C 1261.02417 1993.041992 1249.548584 2004.192627 1249.548584 2024.485352 C 1249.548584 2034.794189 1252.215332 2042.62793 1257.540771 2047.944824 C 1262.857666 2053.270264 1271.341309 2055.92041 1283.000488 2055.92041 C 1290.650879 2055.92041 1298.968018 2054.020264 1307.95166 2050.186768 C 1316.935547 2046.369873 1325.419434 2040.94458 1333.411377 2033.969238 L 1333.411377 1987.041748 Z M 1401.29834 2049.445068 L 1433.250244 2049.445068 L 1436.750244 2089.37207 C 1428.758301 2093.047363 1419.432861 2096.030762 1408.790527 2098.355957 C 1398.139893 2100.681152 1387.480957 2101.8479 1376.838867 2101.8479 C 1366.188232 2101.8479 1357.287842 2100.031006 1350.137451 2096.364258 C 1342.978516 2092.705811 1338.728271 2084.730225 1337.411621 2072.404541 L 1336.40332 2071.39624 C 1327.744385 2079.063232 1319.102295 2084.880371 1310.443604 2088.86377 C 1301.792969 2092.872314 1293.726074 2095.864258 1286.242188 2097.864258 C 1278.750244 2099.855957 1271.933105 2101.022705 1265.766113 2101.3479 L 1251.548584 2101.8479 C 1236.239502 2101.8479 1223.672119 2099.447754 1213.85498 2094.614014 C 1204.037842 2089.797119 1196.303955 2083.805176 1190.645264 2076.654785 C 1184.978516 2069.496094 1181.078125 2061.762451 1178.927979 2053.428467 C 1176.744629 2045.119873 1175.669678 2037.460938 1175.669678 2030.477295 C 1175.669678 2017.82666 1177.994629 2006.767822 1182.669922 1997.275635 C 1187.320313 1987.783447 1193.720459 1979.807861 1201.879395 1973.315918 C 1210.029785 1966.823975 1219.605225 1961.756836 1230.57251 1958.098389 C 1241.573242 1954.431641 1253.540527 1952.273193 1266.524414 1951.598145 L 1333.411377 1947.614502 L 1333.411377 1941.622559 C 1333.411377 1927.646729 1330.427979 1917.07959 1324.427734 1909.920898 C 1318.435547 1902.770508 1306.284912 1899.186768 1287.983887 1899.186768 C 1276 1899.186768 1262.940918 1900.353516 1248.806885 1902.678711 C 1234.656006 1905.020508 1221.763672 1908.012451 1210.113037 1911.662598 L 1198.637451 1867.243408 C 1213.271484 1860.926514 1230.247559 1855.92627 1249.548584 1852.267578 C 1268.849609 1848.609131 1287.325684 1846.783936 1304.959961 1846.783936 C 1319.602295 1846.783936 1332.919678 1848.275879 1344.886963 1851.275879 C 1356.879395 1854.267822 1367.021484 1859.093018 1375.338623 1865.743408 C 1383.655762 1872.4021 1390.064453 1881.135986 1394.564697 1891.953125 C 1399.056641 1902.770508 1401.29834 1916.162842 1401.29834 1932.130371 Z"/>
    <path id="path6" fill="#ffffff" stroke="none" d="M 1630.126709 2096.859131 L 1630.126709 1945.117676 C 1630.126709 1938.800781 1629.784912 1932.975342 1629.118164 1927.650146 C 1628.45166 1922.316406 1626.868164 1917.657959 1624.351318 1913.666016 C 1621.842773 1909.682373 1618.234375 1906.590576 1613.567383 1904.44043 C 1608.875488 1902.273682 1602.675049 1901.181885 1594.991455 1901.181885 C 1586.624268 1901.181885 1577.265381 1903.023682 1566.889893 1906.674072 C 1556.514404 1910.349121 1547.130615 1914.666016 1538.780029 1919.657959 L 1538.780029 2096.859131 L 1467.392822 2096.859131 L 1467.392822 1851.770996 L 1534.796387 1851.770996 L 1535.771484 1874.230469 L 1537.780029 1875.222168 C 1552.130859 1865.571777 1567.23999 1858.246338 1583.09082 1853.262695 C 1598.949951 1848.270752 1612.717285 1845.762451 1624.401367 1845.762451 C 1640.760498 1845.762451 1653.94458 1848.020752 1663.953369 1852.512695 C 1673.962402 1857.012939 1681.729492 1863.079834 1687.238037 1870.730225 C 1692.746582 1878.397461 1696.496826 1887.381348 1698.505371 1897.690186 C 1700.505371 1908.007324 1701.513916 1918.824707 1701.513916 1930.141846 L 1701.513916 2096.859131 Z"/>
    <path id="path7" fill="#ffffff" stroke="none" d="M 2028.453125 1746.933594 C 2045.429199 1746.933594 2063.563477 1748.692139 2082.864502 1752.175537 C 2102.165527 1755.675781 2120.308105 1762.084473 2137.275635 1771.401611 L 2118.316406 1821.321045 C 2101.340576 1814.320557 2084.772949 1809.761963 2068.638672 1807.578613 C 2052.496094 1805.420166 2038.270508 1804.344971 2025.961426 1804.344971 C 2010.318848 1804.344971 1998.001465 1808.003662 1989.017822 1815.320801 C 1980.033936 1822.645996 1975.541992 1833.630127 1975.541992 1848.272461 C 1975.541992 1854.931152 1977.45874 1860.498047 1981.283936 1864.98999 C 1985.109131 1869.498535 1990.18457 1873.390381 1996.509766 1876.724121 C 2002.818359 1880.057617 2010.060547 1882.891113 2018.219238 1885.207764 C 2026.386475 1887.549561 2034.953613 1889.708008 2043.937256 1891.699707 L 2081.614502 1902.183594 C 2095.106689 1906.167236 2107.574219 1912.009277 2119.066406 1919.659668 C 2130.541992 1927.318359 2140.017578 1937.468994 2147.518066 1950.103027 C 2154.993408 1962.753662 2158.735352 1979.221191 2158.735352 1999.530762 C 2158.735352 2032.14917 2146.767822 2057.350342 2122.80835 2075.151367 C 2098.848633 2092.960693 2062.72998 2101.844482 2014.477539 2101.844482 C 2005.826904 2101.844482 1996.259766 2101.352783 1985.775879 2100.361084 C 1975.291992 2099.352783 1964.566406 2097.777588 1953.58252 2095.61084 C 1942.598633 2093.452393 1931.614746 2090.627197 1920.638916 2087.135254 C 1909.655029 2083.635254 1899.171143 2079.401611 1889.187256 2074.409668 L 1908.155029 2022.481934 C 1932.439697 2032.14917 1954.249268 2038.291016 1973.550293 2040.949463 C 1992.843018 2043.624756 2008.318848 2044.958008 2019.977783 2044.958008 C 2040.270508 2044.958008 2055.571289 2041.54126 2065.905273 2034.70752 C 2076.205811 2027.898926 2081.372803 2016.173096 2081.372803 1999.530762 C 2081.372803 1992.205322 2080.039307 1986.138184 2077.380859 1981.304688 C 2074.714111 1976.487793 2070.888916 1972.3125 2065.905273 1968.820557 C 2060.896729 1965.337158 2054.921387 1962.42041 2047.9375 1960.095215 L 2024.969727 1953.111572 C 2007.993652 1948.777832 1991.851318 1944.352539 1976.541992 1939.877441 C 1961.23291 1935.385498 1947.75708 1929.476807 1936.114746 1922.151367 C 1924.455811 1914.834473 1915.230469 1905.600586 1908.41333 1894.449951 C 1901.57959 1883.299316 1898.179443 1868.906982 1898.179443 1851.272705 C 1898.179443 1819.987549 1909.063477 1794.777832 1930.872803 1775.643555 C 1952.665771 1756.509277 1985.192627 1746.933594 2028.453125 1746.933594"/>
    <path id="path8" fill="#ffffff" stroke="none" d="M 2266.555176 1974.06665 C 2266.555176 1996.709717 2270.80542 2014.418945 2279.289307 2027.228027 C 2287.781494 2040.037109 2303.165527 2046.454102 2325.466797 2046.454102 C 2337.100586 2046.454102 2348.251465 2045.279053 2358.910156 2042.945557 C 2369.561035 2040.620361 2380.37793 2037.628418 2391.353516 2033.969971 L 2404.82959 2081.380859 C 2392.520508 2087.7146 2378.294434 2092.548096 2362.151855 2095.86499 C 2346.000977 2099.181885 2329.450195 2100.856934 2312.490967 2100.856934 C 2288.856445 2100.856934 2269.472168 2097.623535 2254.32959 2091.123047 C 2239.178711 2084.639404 2227.119873 2075.730713 2218.135986 2064.421631 C 2209.1521 2053.104492 2202.918457 2039.953613 2199.418213 2024.977783 C 2195.934814 2010.001953 2194.17627 1994.034424 2194.17627 1977.058594 C 2194.17627 1962.757813 2195.851318 1947.865234 2199.168213 1932.389404 C 2202.493408 1916.905273 2208.6604 1902.762939 2217.644287 1889.953857 C 2226.628174 1877.144775 2238.937012 1866.660889 2254.57959 1858.502197 C 2270.213867 1850.351807 2290.514893 1846.276611 2315.48291 1846.276611 C 2326.125244 1846.276611 2338.025879 1847.026611 2351.17627 1848.526611 C 2364.318848 1850.018311 2377.87793 1853.260254 2391.853516 1858.252197 L 2380.869629 1908.179932 C 2370.219238 1905.179688 2360.477051 1903.262939 2351.667969 1902.437988 C 2342.851074 1901.604492 2334.775635 1901.179443 2327.466797 1901.179443 C 2307.499023 1901.179443 2292.340088 1907.596436 2282.039307 1920.405518 C 2271.722168 1933.2146 2266.555176 1951.098877 2266.555176 1974.06665"/>
    <path id="path9" fill="#ffffff" stroke="none" d="M 2442.310547 1851.769287 L 2513.697754 1851.769287 L 2513.697754 2096.857666 L 2442.310547 2096.857666 Z M 2520.189453 1783.874023 C 2520.189453 1794.532959 2516.605957 1803.525146 2509.447266 1810.83374 C 2502.297363 1818.15918 2491.738281 1821.817871 2477.753906 1821.817871 C 2464.445313 1821.817871 2454.302734 1818.15918 2447.302734 1810.83374 C 2440.318848 1803.525146 2436.818848 1794.532959 2436.818848 1783.874023 C 2436.818848 1772.906738 2440.402344 1763.756348 2447.561035 1756.430908 C 2454.711426 1749.097168 2464.77002 1745.447021 2477.753906 1745.447021 C 2491.738281 1745.447021 2502.297363 1749.097168 2509.447266 1756.430908 C 2516.605957 1763.756348 2520.189453 1772.906738 2520.189453 1783.874023"/>
    <path id="path10" fill="#ffffff" stroke="none" d="M 2682.53418 1890.696533 C 2673.500488 1890.696533 2665.975098 1892.213135 2659.958008 1895.196777 C 2653.924316 1898.188477 2648.999023 1902.271973 2645.148926 1907.430664 C 2641.298828 1912.597656 2638.365234 1918.581299 2636.356934 1925.398193 C 2634.348633 1932.223633 2633.015137 1939.299072 2632.348145 1946.607666 L 2727.195313 1946.607666 C 2726.845215 1930.315186 2723.594727 1916.90625 2717.402832 1906.422363 C 2711.202637 1895.938477 2699.585449 1890.696533 2682.53418 1890.696533 M 2679.759277 1845.269043 C 2706.060547 1845.269043 2726.687012 1849.444092 2741.670898 1857.75293 C 2756.646973 1866.070068 2767.880859 1876.395752 2775.364258 1888.696289 C 2782.856445 1901.021973 2787.506836 1914.089355 2789.340332 1927.890137 C 2791.165039 1941.70752 2792.082031 1954.099854 2792.082031 1965.08374 L 2792.082031 1990.543457 L 2631.348145 1990.543457 C 2631.348145 2009.669434 2636.090332 2024.10376 2645.574219 2033.837402 C 2655.066406 2043.571289 2670.775391 2048.438232 2692.743164 2048.438232 C 2706.060547 2048.438232 2719.361328 2047.03833 2732.687012 2044.204834 C 2745.987793 2041.379639 2758.963379 2037.629395 2771.622559 2032.970703 L 2786.089844 2076.639893 C 2769.780762 2085.523682 2752.646484 2091.782227 2734.678711 2095.415771 C 2716.703125 2099.032715 2699.243652 2100.85791 2682.267578 2100.85791 C 2657.633301 2100.85791 2637.373535 2097.440918 2621.480957 2090.624023 C 2605.580078 2083.806885 2593.087891 2074.581299 2584.003906 2062.922363 C 2574.912109 2051.271729 2568.64502 2037.879395 2565.169922 2022.736816 C 2561.694336 2007.594482 2559.977539 1991.535156 2559.977539 1974.559326 C 2559.977539 1961.258545 2561.62793 1946.949463 2564.961426 1931.63208 C 2568.27832 1916.331055 2574.445313 1902.355469 2583.429199 1889.70459 C 2592.413086 1877.062256 2604.646973 1866.495117 2620.122559 1858.00293 C 2635.598633 1849.519287 2655.474609 1845.269043 2679.759277 1845.269043"/>
    <path id="path11" fill="#ffffff" stroke="none" d="M 2996.148926 2096.859131 L 2996.148926 1945.117676 C 2996.148926 1938.800781 2995.807129 1932.975342 2995.140625 1927.650146 C 2994.465332 1922.316406 2992.881836 1917.657959 2990.373535 1913.666016 C 2987.865234 1909.682373 2984.256348 1906.590576 2979.572754 1904.44043 C 2974.88916 1902.273682 2968.697266 1901.181885 2961.005371 1901.181885 C 2952.646484 1901.181885 2943.279297 1903.023682 2932.912109 1906.674072 C 2922.536621 1910.349121 2913.152832 1914.666016 2904.802246 1919.657959 L 2904.802246 2096.859131 L 2833.415039 2096.859131 L 2833.415039 1851.770996 L 2900.818848 1851.770996 L 2901.793945 1874.230469 L 2903.810547 1875.222168 C 2918.152832 1865.571777 2933.262207 1858.246338 2949.112793 1853.262695 C 2964.972168 1848.270752 2978.739746 1845.762451 2990.42334 1845.762451 C 3006.782715 1845.762451 3019.966797 1848.020752 3029.975586 1852.512695 C 3039.984375 1857.012939 3047.751465 1863.079834 3053.260254 1870.730225 C 3058.769043 1878.397461 3062.519043 1887.381348 3064.527344 1897.690186 C 3066.519531 1908.007324 3067.536133 1918.824707 3067.536133 1930.141846 L 3067.536133 2096.859131 Z"/>
    <path id="path12" fill="#ffffff" stroke="none" d="M 3180.23877 1974.06665 C 3180.23877 1996.709717 3184.472168 2014.418945 3192.964355 2027.228027 C 3201.448242 2040.037109 3216.84082 2046.454102 3239.14209 2046.454102 C 3250.78418 2046.454102 3261.935059 2045.279053 3272.577148 2042.945557 C 3283.23584 2040.620361 3294.044922 2037.628418 3305.037109 2033.969971 L 3318.504395 2081.380859 C 3306.204102 2087.7146 3291.961426 2092.548096 3275.835449 2095.86499 C 3259.68457 2099.181885 3243.133789 2100.856934 3226.158203 2100.856934 C 3202.523438 2100.856934 3183.147461 2097.623535 3168.013184 2091.123047 C 3152.862305 2084.639404 3140.803223 2075.730713 3131.819336 2064.421631 C 3122.835938 2053.104492 3116.59375 2039.953613 3113.09375 2024.977783 C 3109.601563 2010.001953 3107.859863 1994.034424 3107.859863 1977.058594 C 3107.859863 1962.757813 3109.518555 1947.865234 3112.852051 1932.389404 C 3116.168457 1916.905273 3122.327148 1902.762939 3131.311035 1889.953857 C 3140.311523 1877.144775 3152.612305 1866.660889 3168.263184 1858.502197 C 3183.897461 1850.351807 3204.198242 1846.276611 3229.166504 1846.276611 C 3239.808594 1846.276611 3251.692871 1847.026611 3264.843262 1848.526611 C 3277.994141 1850.018311 3291.553223 1853.260254 3305.537109 1858.252197 L 3294.544922 1908.179932 C 3283.88623 1905.179688 3274.152344 1903.262939 3265.343262 1902.437988 C 3256.526367 1901.604492 3248.450684 1901.179443 3241.133789 1901.179443 C 3221.174316 1901.179443 3206.023438 1907.596436 3195.714844 1920.405518 C 3185.397461 1933.2146 3180.23877 1951.098877 3180.23877 1974.06665"/>
    <path id="path13" fill="#ffffff" stroke="none" d="M 3459.782227 1890.696533 C 3450.748535 1890.696533 3443.223145 1892.213135 3437.206055 1895.196777 C 3431.188965 1898.188477 3426.24707 1902.271973 3422.396973 1907.430664 C 3418.546875 1912.597656 3415.613281 1918.581299 3413.621582 1925.398193 C 3411.604492 1932.223633 3410.279785 1939.299072 3409.596191 1946.607666 L 3504.442871 1946.607666 C 3504.109863 1930.315186 3500.851074 1916.90625 3494.650879 1906.422363 C 3488.467285 1895.938477 3476.841309 1890.696533 3459.782227 1890.696533 M 3457.023926 1845.269043 C 3483.308594 1845.269043 3503.951172 1849.444092 3518.927246 1857.75293 C 3533.894531 1866.070068 3545.128418 1876.395752 3552.612305 1888.696289 C 3560.104492 1901.021973 3564.754395 1914.089355 3566.587891 1927.890137 C 3568.421387 1941.70752 3569.330078 1954.099854 3569.330078 1965.08374 L 3569.330078 1990.543457 L 3408.604492 1990.543457 C 3408.604492 2009.669434 3413.337891 2024.10376 3422.830078 2033.837402 C 3432.313965 2043.571289 3448.040039 2048.438232 3469.999512 2048.438232 C 3483.308594 2048.438232 3496.617676 2047.03833 3509.935059 2044.204834 C 3523.23584 2041.379639 3536.211426 2037.629395 3548.870605 2032.970703 L 3563.346191 2076.639893 C 3547.037109 2085.523682 3529.894531 2091.782227 3511.926758 2095.415771 C 3493.958984 2099.032715 3476.491699 2100.85791 3459.515625 2100.85791 C 3434.88916 2100.85791 3414.621582 2097.440918 3398.737305 2090.624023 C 3382.844727 2083.806885 3370.344238 2074.581299 3361.251953 2062.922363 C 3352.17627 2051.271729 3345.892578 2037.879395 3342.41748 2022.736816 C 3338.950684 2007.594482 3337.217285 1991.535156 3337.217285 1974.559326 C 3337.217285 1961.258545 3338.875977 1946.949463 3342.209473 1931.63208 C 3345.525879 1916.331055 3351.70166 1902.355469 3360.685059 1889.70459 C 3369.668945 1877.062256 3381.894531 1866.495117 3397.370605 1858.00293 C 3412.846191 1849.519287 3432.722656 1845.269043 3457.023926 1845.269043"/>
    <path id="path14" fill="#ffffff" stroke="none" d="M 536.4375 2675.534668 L 536.4375 2332.099365 L 770.558594 2332.099365 L 770.558594 2384.527344 L 610.316406 2384.527344 L 610.316406 2477.365723 L 735.61499 2477.365723 L 735.61499 2527.284912 L 610.316406 2527.284912 L 610.316406 2675.534668 Z"/>
    <path id="path15" fill="#ffffff" stroke="none" d="M 959.88623 2553.239746 C 959.88623 2543.589355 959.211182 2534.11377 957.88623 2524.78833 C 956.561035 2515.479492 954.144287 2507.145508 950.652344 2499.820313 C 947.1521 2492.511475 942.235352 2486.602783 935.909912 2482.11084 C 929.593018 2477.602295 921.275879 2475.368896 910.958496 2475.368896 C 900.649658 2475.368896 892.157471 2477.602295 885.498779 2482.11084 C 878.840088 2486.602783 873.523193 2492.511475 869.53125 2499.820313 C 865.539551 2507.145508 862.797607 2515.479492 861.297607 2524.78833 C 859.797363 2534.11377 859.047363 2543.589355 859.047363 2553.239746 C 859.047363 2564.223633 859.714111 2574.365967 861.047607 2583.691406 C 862.364258 2593.008545 864.956055 2601.083984 868.78125 2607.901123 C 872.606445 2614.718018 877.848389 2620.126709 884.50708 2624.126953 C 891.157471 2628.118896 899.98291 2630.110596 910.958496 2630.110596 C 920.950684 2630.110596 929.18457 2628.052246 935.676514 2623.868652 C 942.160156 2619.709961 947.1521 2614.068115 950.652344 2606.900879 C 954.144287 2599.742188 956.561035 2591.508545 957.88623 2582.191406 C 959.211182 2572.874268 959.88623 2563.223633 959.88623 2553.239746 M 1033.765137 2552.739746 C 1033.765137 2569.715576 1031.598389 2585.94165 1027.264893 2601.41748 C 1022.939697 2616.884766 1015.789307 2630.543945 1005.813721 2642.336182 C 995.821533 2654.161865 982.845703 2663.487305 966.869873 2670.296143 C 950.894043 2677.104736 931.268066 2680.521729 907.975098 2680.521729 C 885.332275 2680.521729 866.197754 2677.204834 850.563721 2670.546143 C 834.912842 2663.904053 822.278809 2654.820313 812.628174 2643.344727 C 802.961182 2631.860596 796.060791 2618.38501 791.9104 2602.91748 C 787.743652 2587.44165 785.676758 2570.882324 785.676758 2553.239746 C 785.676758 2535.938721 788.001953 2519.546387 792.6604 2504.070557 C 797.310791 2488.603027 804.63623 2475.035645 814.620117 2463.393311 C 824.604004 2451.742676 837.496338 2442.425537 853.30542 2435.43335 C 869.106201 2428.449707 888.332275 2424.949463 910.958496 2424.949463 C 933.926514 2424.949463 953.219238 2428.366455 968.870117 2435.18335 C 984.512451 2442.008789 997.155029 2451.334229 1006.80542 2463.134766 C 1016.456055 2474.952148 1023.356445 2488.603027 1027.531494 2504.070557 C 1031.681885 2519.546387 1033.765137 2535.772217 1033.765137 2552.739746"/>
    <path id="path16" fill="#ffffff" stroke="none" d="M 1147.923828 2681.031738 C 1131.614746 2681.031738 1118.555664 2678.86499 1108.738525 2674.539551 C 1098.912842 2670.222656 1091.345947 2664.230713 1086.020508 2656.572021 C 1080.695313 2648.921631 1077.203369 2640.096191 1075.544922 2630.112305 C 1073.878174 2620.128418 1073.044922 2609.31958 1073.044922 2597.677246 L 1073.044922 2430.443115 L 1144.423828 2430.443115 L 1144.423828 2582.18457 C 1144.423828 2588.185059 1144.748779 2593.852051 1145.432129 2599.160645 C 1146.098877 2604.48584 1147.590576 2609.152832 1149.924072 2613.144775 C 1152.249023 2617.128174 1155.574219 2620.303467 1159.907959 2622.628418 C 1164.224854 2624.953613 1170.216797 2626.120361 1177.875488 2626.120361 C 1184.867676 2626.120361 1193.093018 2624.295166 1202.576904 2620.628418 C 1212.069092 2616.969971 1221.302979 2611.144531 1230.286621 2603.160889 L 1230.286621 2430.443115 L 1301.673828 2429.934814 L 1301.673828 2675.531494 L 1235.278564 2675.531494 C 1234.611816 2671.2229 1234.278564 2666.88916 1234.278564 2662.555664 C 1234.278564 2658.230469 1233.945313 2653.755127 1233.278564 2649.079834 L 1231.286865 2648.088135 C 1223.63623 2654.746826 1215.894287 2660.147217 1208.068848 2664.314209 C 1200.251709 2668.480957 1192.68457 2671.789551 1185.359375 2674.289551 C 1178.033936 2676.798096 1171.133545 2678.539795 1164.649902 2679.531494 C 1158.157715 2680.523193 1152.58252 2681.031738 1147.923828 2681.031738"/>
    <path id="path17" fill="#ffffff" stroke="none" d="M 1513.272949 2675.534668 L 1513.272949 2523.784912 C 1513.272949 2517.476074 1512.931152 2511.650879 1512.264404 2506.325439 C 1511.597656 2501.000244 1510.014404 2496.333252 1507.497559 2492.341553 C 1504.989014 2488.341309 1501.380615 2485.274414 1496.705322 2483.107666 C 1492.021729 2480.949219 1485.82959 2479.857422 1478.137695 2479.857422 C 1469.770508 2479.857422 1460.411621 2481.699219 1450.036133 2485.341064 C 1439.6604 2489.024658 1430.276611 2493.333252 1421.92627 2498.333496 L 1421.92627 2675.534668 L 1350.539063 2675.534668 L 1350.539063 2430.446533 L 1417.942627 2430.446533 L 1418.917725 2452.906006 L 1420.93457 2453.897705 C 1435.276855 2444.247314 1450.385986 2436.930176 1466.237061 2431.938232 C 1482.096191 2426.946289 1495.863525 2424.446045 1507.547607 2424.446045 C 1523.906738 2424.446045 1537.09082 2426.696289 1547.099609 2431.188232 C 1557.116943 2435.688477 1564.875732 2441.755371 1570.384277 2449.405762 C 1575.892822 2457.072998 1579.643066 2466.056641 1581.651611 2476.374023 C 1583.651611 2486.682861 1584.659912 2497.5 1584.659912 2508.817383 L 1584.659912 2675.534668 Z"/>
    <path id="path18" fill="#ffffff" stroke="none" d="M 1796.448242 2490.293945 C 1790.772949 2486.6521 1783.07251 2483.501709 1773.371826 2480.851563 C 1763.671387 2478.201416 1754.8125 2476.868164 1746.787109 2476.868164 C 1740.77002 2476.868164 1734.736572 2477.943115 1728.719482 2480.101563 C 1722.694092 2482.251709 1717.352295 2486.326904 1712.668701 2492.302246 C 1707.985107 2498.260986 1704.201416 2506.569824 1701.36792 2517.161865 C 1698.526123 2527.779297 1697.109375 2541.388184 1697.109375 2557.964111 C 1697.109375 2572.564941 1698.359619 2584.424072 1700.876221 2593.541016 C 1703.393066 2602.675049 1706.810059 2609.89209 1711.168457 2615.175537 C 1715.510498 2620.492676 1720.694092 2624.151123 1726.710938 2626.134521 C 1732.728027 2628.126221 1739.08667 2629.118164 1745.778809 2629.118164 C 1749.462158 2629.118164 1753.637451 2628.542969 1758.312744 2627.36792 C 1762.996338 2626.226318 1767.679932 2624.801025 1772.363525 2623.142822 C 1777.038818 2621.500977 1781.480713 2619.500732 1785.664307 2617.175781 L 1796.448242 2610.717041 Z M 1731.552979 2424.440186 C 1739.545166 2424.440186 1749.779053 2425.548584 1762.254639 2427.723877 C 1774.738525 2429.915527 1786.130859 2434.032471 1796.448242 2440.074463 L 1796.448242 2318.626221 L 1867.835449 2318.626221 L 1867.835449 2675.537109 L 1801.448486 2675.537109 L 1799.948242 2653.585938 L 1798.448242 2652.569336 C 1786.472656 2662.228271 1773.563477 2669.061768 1759.762939 2673.037109 C 1745.945313 2677.037354 1733.719727 2679.029053 1723.069092 2679.029053 C 1704.109863 2679.029053 1688.292236 2675.787109 1675.641602 2669.303467 C 1662.999268 2662.811523 1653.015381 2654.077637 1645.698242 2643.102051 C 1638.373047 2632.109863 1633.222656 2619.300781 1630.230713 2604.650146 C 1627.222412 2590.02417 1625.739014 2574.540039 1625.739014 2558.230957 C 1625.739014 2539.271484 1627.555664 2521.628906 1631.222656 2505.31958 C 1634.881104 2489.018799 1640.956299 2474.86792 1649.440186 2462.884033 C 1657.932373 2450.908447 1668.824463 2441.516113 1682.141846 2434.682617 C 1695.434326 2427.865479 1711.918457 2424.440186 1731.552979 2424.440186"/>
    <path id="path19" fill="#ffffff" stroke="none" d="M 2012.489746 2569.716553 C 1989.530273 2571.699951 1978.046387 2582.867188 1978.046387 2603.159912 C 1978.046387 2613.477295 1980.713135 2621.30249 1986.03833 2626.619629 C 1991.355469 2631.944824 1999.839111 2634.603271 2011.498047 2634.603271 C 2019.148438 2634.603271 2027.465576 2632.686523 2036.466064 2628.861328 C 2045.44165 2625.036133 2053.916992 2619.619141 2061.90918 2612.6521 L 2061.90918 2565.724609 Z M 2129.796143 2628.119629 L 2161.747803 2628.119629 L 2165.248047 2668.055176 C 2157.256104 2671.721924 2147.93042 2674.713867 2137.28833 2677.039063 C 2126.637695 2679.364014 2115.97876 2680.522461 2105.336426 2680.522461 C 2094.686035 2680.522461 2085.7854 2678.705811 2078.63501 2675.038818 C 2071.476318 2671.380371 2067.226074 2663.404785 2065.909424 2651.079102 L 2064.900879 2650.070801 C 2056.250488 2657.738037 2047.600098 2663.563232 2038.958008 2667.546875 C 2030.290771 2671.55542 2022.223633 2674.538818 2014.73999 2676.538818 C 2007.247803 2678.539063 2000.430908 2679.69751 1994.272217 2680.030762 L 1980.046387 2680.522461 C 1964.737305 2680.522461 1952.169922 2678.114014 1942.352783 2673.297119 C 1932.543945 2668.480225 1924.801758 2662.488281 1919.143066 2655.312744 C 1913.484375 2648.170654 1909.575928 2640.42041 1907.425781 2632.103271 C 1905.242432 2623.802734 1904.167236 2616.135742 1904.167236 2609.151855 C 1904.167236 2596.501221 1906.492432 2585.442383 1911.167725 2575.950195 C 1915.817871 2566.458008 1922.218262 2558.482666 1930.376953 2551.990479 C 1938.527588 2545.506836 1948.103027 2540.431641 1959.086914 2536.772949 C 1970.070801 2533.106201 1982.038086 2530.947754 1995.022217 2530.272705 L 2061.90918 2526.280762 L 2061.90918 2520.297119 C 2061.90918 2506.321289 2058.925781 2495.75415 2052.925293 2488.60376 C 2046.93335 2481.445068 2034.774414 2477.861572 2016.481689 2477.861572 C 2004.497803 2477.861572 1991.438721 2479.036621 1977.304688 2481.361816 C 1963.153809 2483.695068 1950.261475 2486.687012 1938.61084 2490.345459 L 1927.135254 2445.918213 C 1941.769287 2439.601074 1958.745361 2434.60083 1978.046387 2430.942383 C 1997.347412 2427.275391 2015.823242 2425.45874 2033.45752 2425.45874 C 2048.100098 2425.45874 2061.41748 2426.950439 2073.393066 2429.942383 C 2085.377197 2432.942383 2095.519287 2437.776123 2103.836426 2444.417969 C 2112.153564 2451.07666 2118.562256 2459.810547 2123.0625 2470.627686 C 2127.554443 2481.445068 2129.796143 2494.837402 2129.796143 2510.804932 Z"/>
    <path id="path20" fill="#ffffff" stroke="none" d="M 2273.813232 2362.552002 L 2273.813232 2429.938965 L 2345.183594 2429.938965 L 2345.183594 2476.866455 L 2273.813232 2476.866455 L 2273.813232 2587.689209 C 2273.813232 2600.664795 2276.138184 2610.240234 2280.796875 2616.390625 C 2285.447021 2622.541016 2294.105957 2625.624512 2306.756592 2625.624512 C 2311.415283 2625.624512 2317.398926 2625.032715 2324.724121 2623.874512 C 2332.032959 2622.707764 2340.200195 2621.124268 2349.175781 2619.124268 L 2358.17627 2665.543213 C 2347.508789 2670.218506 2335.874756 2673.71875 2323.224121 2676.043945 C 2310.573486 2678.369141 2298.939453 2679.527344 2288.280518 2679.527344 C 2271.304688 2679.527344 2257.337158 2677.535645 2246.353271 2673.552002 C 2235.369385 2669.552002 2226.718994 2664.226563 2220.393555 2657.567871 C 2214.07666 2650.91748 2209.659668 2643.183838 2207.159424 2634.358398 C 2204.667725 2625.54126 2203.417725 2616.307373 2203.417725 2606.648438 L 2203.417725 2476.866455 L 2168.974121 2476.866455 L 2168.974121 2437.930908 L 2207.909668 2426.455322 C 2208.917969 2424.447021 2210.234619 2420.630127 2211.909668 2414.971436 L 2225.385498 2367.552246 Z"/>
    <path id="path21" fill="#ffffff" stroke="none" d="M 2392.624512 2430.450684 L 2463.995117 2430.450684 L 2463.995117 2675.538818 L 2392.624512 2675.538818 Z M 2470.479004 2362.555176 C 2470.479004 2373.205811 2466.912109 2382.197998 2459.75293 2389.515137 C 2452.602539 2396.82373 2442.043945 2400.490723 2428.060059 2400.490723 C 2414.742188 2400.490723 2404.591797 2396.82373 2397.60791 2389.515137 C 2390.624512 2382.197998 2387.124023 2373.205811 2387.124023 2362.555176 C 2387.124023 2351.571289 2390.690918 2342.429199 2397.866699 2335.10376 C 2405.008301 2327.77832 2415.075684 2324.119873 2428.060059 2324.119873 C 2442.043945 2324.119873 2452.602539 2327.77832 2459.75293 2335.10376 C 2466.912109 2342.429199 2470.479004 2351.571289 2470.479004 2362.555176"/>
    <path id="path22" fill="#ffffff" stroke="none" d="M 2684.490234 2553.239746 C 2684.490234 2543.589355 2683.807129 2534.11377 2682.481934 2524.78833 C 2681.148438 2515.479492 2678.740234 2507.145508 2675.239746 2499.820313 C 2671.756348 2492.511475 2666.839355 2486.602783 2660.51416 2482.11084 C 2654.197266 2477.602295 2645.871582 2475.368896 2635.5625 2475.368896 C 2625.245605 2475.368896 2616.761719 2477.602295 2610.103027 2482.11084 C 2603.444336 2486.602783 2598.127441 2492.511475 2594.135254 2499.820313 C 2590.135254 2507.145508 2587.393555 2515.479492 2585.901855 2524.78833 C 2584.401367 2534.11377 2583.651367 2543.589355 2583.651367 2553.239746 C 2583.651367 2564.223633 2584.310059 2574.365967 2585.651855 2583.691406 C 2586.968262 2593.008545 2589.560059 2601.083984 2593.385254 2607.901123 C 2597.210449 2614.718018 2602.436035 2620.126709 2609.111328 2624.126953 C 2615.753418 2628.118896 2624.586914 2630.110596 2635.5625 2630.110596 C 2645.538086 2630.110596 2653.788574 2628.052246 2660.272461 2623.868652 C 2666.76416 2619.709961 2671.756348 2614.068115 2675.239746 2606.900879 C 2678.740234 2599.742188 2681.148438 2591.508545 2682.481934 2582.191406 C 2683.807129 2572.874268 2684.490234 2563.223633 2684.490234 2553.239746 M 2758.352539 2552.739746 C 2758.352539 2569.715576 2756.186035 2585.94165 2751.869141 2601.41748 C 2747.543945 2616.884766 2740.393555 2630.543945 2730.409668 2642.336182 C 2720.425781 2654.161865 2707.449707 2663.487305 2691.474121 2670.296143 C 2675.498047 2677.104736 2655.855469 2680.521729 2632.570801 2680.521729 C 2609.936523 2680.521729 2590.801758 2677.204834 2575.159668 2670.546143 C 2559.51709 2663.904053 2546.866211 2654.820313 2537.21582 2643.344727 C 2527.56543 2631.860596 2520.665039 2618.38501 2516.506348 2602.91748 C 2512.347656 2587.44165 2510.26416 2570.882324 2510.26416 2553.239746 C 2510.26416 2535.938721 2512.589355 2519.546387 2517.264648 2504.070557 C 2521.915039 2488.603027 2529.240234 2475.035645 2539.21582 2463.393311 C 2549.199707 2451.742676 2562.100586 2442.425537 2577.909668 2435.43335 C 2593.710449 2428.449707 2612.919922 2424.949463 2635.5625 2424.949463 C 2658.522461 2424.949463 2677.814941 2428.366455 2693.474121 2435.18335 C 2709.108398 2442.008789 2721.742188 2451.334229 2731.409668 2463.134766 C 2741.051758 2474.952148 2747.952148 2488.603027 2752.119141 2504.070557 C 2756.277344 2519.546387 2758.352539 2535.772217 2758.352539 2552.739746"/>
    <path id="path23" fill="#ffffff" stroke="none" d="M 2961.176758 2675.534668 L 2961.176758 2523.784912 C 2961.176758 2517.476074 2960.835449 2511.650879 2960.168457 2506.325439 C 2959.493652 2501.000244 2957.910156 2496.333252 2955.401855 2492.341553 C 2952.893066 2488.341309 2949.284668 2485.274414 2944.617676 2483.107666 C 2939.925781 2480.949219 2933.725586 2479.857422 2926.024902 2479.857422 C 2917.674805 2479.857422 2908.315918 2481.699219 2897.94043 2485.341064 C 2887.564453 2489.024658 2878.180664 2493.333252 2869.830566 2498.333496 L 2869.830566 2675.534668 L 2798.443359 2675.534668 L 2798.443359 2430.446533 L 2865.84668 2430.446533 L 2866.821777 2452.906006 L 2868.830078 2453.897705 C 2883.181152 2444.247314 2898.290039 2436.930176 2914.141113 2431.938232 C 2930.000488 2426.946289 2943.767578 2424.446045 2955.45166 2424.446045 C 2971.811035 2424.446045 2984.986816 2426.696289 2995.003906 2431.188232 C 3005.012695 2435.688477 3012.779785 2441.755371 3018.288574 2449.405762 C 3023.796875 2457.072998 3027.547363 2466.056641 3029.555664 2476.374023 C 3031.547363 2486.682861 3032.563965 2497.5 3032.563965 2508.817383 L 3032.563965 2675.534668 Z"/>
    <path id="path24" fill="#ffffff" stroke="none" d="M 2067.45459 545.751953 C 2016.468262 535.626465 1962.56543 528.959473 1908.220947 523.03418 L 1899.145264 522.03418 C 1787.839355 509.675293 1695.967773 490.232422 1703.034668 396.59375 C 1713.643555 249.944336 2045.786621 235.810059 2045.786621 400.135742 L 2346.144531 400.135742 C 2348.569824 217.325684 2237.322021 97.169434 2090.464111 39.624512 C 1808.682129 -70.789551 1395.709717 49.358398 1402.685303 400.135742 C 1405.460449 611.322266 1515.35791 713.202637 1692.759277 756.555176 C 1740.953369 768.338867 1794.081299 775.839355 1851.459473 779.989746 C 1875.077393 781.331543 1897.937012 783.147949 1919.463135 785.790039 C 2010.542969 796.957275 2077.60498 823.033691 2077.60498 893.054199 C 2077.60498 1013.360596 1810.990479 1032.428223 1720.468994 945.44873 C 1701.99292 927.672607 1690.675781 905.579834 1690.675781 878.919922 L 1385.017578 878.919922 C 1384.200928 940.573242 1396.526367 995.05957 1418.835938 1042.570557 C 1458.513184 1127.158447 1530.050293 1189.461914 1617.005127 1229.797363 C 1626.005615 1233.964355 1635.214355 1237.872803 1644.531494 1241.572998 C 1940.839355 1359.479248 2385.021484 1239.822754 2385.021484 894.829346 C 2385.021484 657.916504 2243.897461 580.812012 2067.45459 545.751953"/>
    <path id="path25" fill="#ffffff" stroke="none" d="M 2968.82666 302.95459 L 3334.546387 302.95459 L 3334.546387 20.255859 L 2564.212891 20.255859 L 2564.212891 1257.022949 L 2885.780273 1257.022949 L 2885.780273 855.959717 L 3283.293457 855.959717 L 3283.293457 573.277832 L 2885.780273 573.277832 L 2885.780273 302.95459 Z"/>
    <path id="path26" fill="#ffffff" stroke="none" d="M 1038.736328 818.868408 C 1158.55957 737.622559 1219.421143 601.648438 1221.679443 464.699219 C 1224.654785 283.230957 1124.649414 100.071289 921.946777 40.401367 C 878.436035 27.583984 830.208496 20.450195 777.24707 20.258789 L 234.834595 20.258789 L 234.834595 270.205566 C 252.452148 278.064453 268.703003 288.389648 283.278809 300.640625 L 298.571289 314.699707 C 315.205566 329.525391 334.256592 341.701172 355.074219 350.501465 C 379.642334 360.885254 406.610596 366.644043 434.953613 366.644043 C 463.271973 366.644043 490.264893 360.885254 514.799561 350.501465 C 526.475342 345.567871 537.434326 339.342285 547.876465 332.39209 L 551.101563 330.375488 C 558.118652 325.516602 564.935791 320.375 571.302734 314.699707 L 583.978271 302.798828 C 600.196045 288.681641 618.580322 276.980957 638.689697 268.480469 C 663.240967 258.09668 690.217529 252.346191 718.543945 252.346191 C 746.887207 252.346191 773.87207 258.09668 798.406738 268.480469 C 822.949707 278.855957 845.04248 293.873535 863.626953 312.432617 C 882.186279 330.975586 897.220215 353.07666 907.595947 377.603027 C 910.712646 385.011719 913.262939 392.695313 915.52124 400.512695 C 920.746582 418.621582 923.705078 437.706055 923.705078 457.499023 C 923.705078 485.842285 917.963135 512.818359 907.595947 537.39502 C 897.220215 561.946289 882.186279 584.030762 863.626953 602.564941 C 845.04248 621.141113 822.949707 636.158691 798.406738 646.54248 C 773.87207 656.92627 746.887207 662.668457 718.543945 662.668457 C 693.817627 662.668457 670.241455 658.067871 648.290283 650.059082 L 638.689697 646.54248 C 618.563721 638.041992 600.162598 626.299805 583.945068 612.148926 L 572.952881 602.04834 C 566.11084 595.806152 558.727051 590.172852 551.101563 584.905762 C 539.734375 577.080566 527.666992 570.238281 514.799561 564.796387 C 502.290527 559.504395 489.11499 555.454102 475.472656 552.712402 C 462.363525 550.079102 448.821045 548.678711 434.953613 548.678711 C 406.610596 548.678711 379.642334 554.412598 355.074219 564.796387 C 333.564941 573.896973 313.947021 586.547363 296.912842 602.04834 L 289.37085 609.273926 C 273.328247 623.874512 254.893921 635.858398 234.834595 644.817383 L 234.834595 1257.01709 L 551.101563 1257.01709 L 551.101563 893.055908 L 715.393799 893.055908 L 927.421875 1257.01709 L 1310.500977 1257.01709 L 1169.910156 1030.35498 Z"/>
</svg>
